<svg t="1735304186455" class="icon" viewBox="0 0 1024 1024" version="1.1" xmlns="http://www.w3.org/2000/svg" p-id="8935" width="16" height="16"><path d="M455.18 269.08c-62.75 11.69-115.97 39.39-159.75 83.17-33.57 40.84-51.08 87.53-52.51 140.04H435.5v413.63H0V571.07c0-49.57 5.82-99.2 17.51-148.8 16.03-58.33 43.01-110.15 80.97-155.39 39.39-43.75 86.05-78.04 140.04-102.85 62.72-24.78 128.38-40.1 196.97-45.95l19.69 151z m569.02 0c-62.75 11.69-116 39.39-159.78 83.17-33.57 40.84-51.08 87.53-52.51 140.04h192.58v413.63h-435.5V571.07c0-49.57 5.82-99.2 17.51-148.8 16.03-58.33 43.01-110.15 80.97-155.39 39.39-43.75 86.05-78.04 140.04-102.85 62.72-24.78 128.38-40.1 196.97-45.95l19.72 151z" fill="#2c2c2c" p-id="8936"></path></svg>